<svg width="22" height="23" viewBox="0 0 22 23" fill="none" xmlns="http://www.w3.org/2000/svg">
<g clip-path="url(#clip0_70_5825)">
<path d="M15.2072 8.75H13.7497V4.16667C13.7497 3.6625 13.3372 3.25 12.833 3.25H9.16634C8.66217 3.25 8.24967 3.6625 8.24967 4.16667V8.75H6.79217C5.97634 8.75 5.56384 9.74 6.14134 10.3175L10.3488 14.525C10.7063 14.8825 11.2838 14.8825 11.6413 14.525L15.8488 10.3175C16.4263 9.74 16.023 8.75 15.2072 8.75ZM4.58301 17.9167C4.58301 18.4208 4.99551 18.8333 5.49967 18.8333H16.4997C17.0038 18.8333 17.4163 18.4208 17.4163 17.9167C17.4163 17.4125 17.0038 17 16.4997 17H5.49967C4.99551 17 4.58301 17.4125 4.58301 17.9167Z" fill="#4D4D4D"/>
</g>
<defs>
<clipPath id="clip0_70_5825">
<rect width="22" height="22" fill="white" transform="translate(0 0.5)"/>
</clipPath>
</defs>
</svg>
