<svg width="13" height="14" viewBox="0 0 13 14" fill="none" xmlns="http://www.w3.org/2000/svg">
<g clip-path="url(#clip0_900_469)">
<path d="M9.95312 0.5H3.04688C1.36413 0.5 0 1.86413 0 3.54688V10.4531C0 12.1359 1.36413 13.5 3.04688 13.5H9.95312C11.6359 13.5 13 12.1359 13 10.4531V3.54688C13 1.86413 11.6359 0.5 9.95312 0.5Z" fill="url(#paint0_radial_900_469)"/>
<path d="M9.95312 0.5H3.04688C1.36413 0.5 0 1.86413 0 3.54688V10.4531C0 12.1359 1.36413 13.5 3.04688 13.5H9.95312C11.6359 13.5 13 12.1359 13 10.4531V3.54688C13 1.86413 11.6359 0.5 9.95312 0.5Z" fill="url(#paint1_radial_900_469)"/>
<path d="M6.50046 1.92188C5.12134 1.92188 4.94823 1.92792 4.40659 1.95255C3.86598 1.97733 3.49695 2.06289 3.17408 2.18848C2.84004 2.31817 2.55673 2.49169 2.27449 2.77403C1.992 3.05633 1.81848 3.33964 1.68838 3.67352C1.56244 3.99649 1.47677 4.36567 1.45245 4.90603C1.42822 5.44772 1.42188 5.62088 1.42188 7.00005C1.42188 8.37922 1.42797 8.55177 1.45255 9.09341C1.47743 9.63402 1.563 10.003 1.68848 10.3259C1.81827 10.66 1.99179 10.9433 2.27414 11.2255C2.55633 11.508 2.83964 11.6819 3.17342 11.8116C3.49654 11.9372 3.86562 12.0228 4.40614 12.0476C4.94782 12.0722 5.12078 12.0782 6.49985 12.0782C7.87912 12.0782 8.05167 12.0722 8.5933 12.0476C9.13392 12.0228 9.50336 11.9372 9.82648 11.8116C10.1604 11.6819 10.4433 11.508 10.7254 11.2255C11.0079 10.9433 11.1814 10.66 11.3115 10.3261C11.4363 10.003 11.5221 9.63392 11.5475 9.09351C11.5718 8.55187 11.5781 8.37922 11.5781 7.00005C11.5781 5.62088 11.5718 5.44782 11.5475 4.90614C11.5221 4.36552 11.4363 3.99654 11.3115 3.67368C11.1814 3.33964 11.0079 3.05633 10.7254 2.77403C10.443 2.49159 10.1605 2.31807 9.82617 2.18853C9.50244 2.06289 9.13321 1.97728 8.59259 1.95255C8.05091 1.92792 7.87846 1.92188 6.49888 1.92188H6.50046ZM6.0449 2.837C6.18013 2.8368 6.331 2.837 6.50046 2.837C7.85637 2.837 8.01704 2.84188 8.55248 2.8662C9.04759 2.88885 9.31633 2.97157 9.49533 3.04109C9.73233 3.13311 9.90128 3.24315 10.0789 3.42094C10.2566 3.59867 10.3666 3.76793 10.4589 4.00492C10.5284 4.18367 10.6112 4.45241 10.6338 4.94752C10.6581 5.48286 10.6634 5.64363 10.6634 6.99888C10.6634 8.35413 10.6581 8.51496 10.6338 9.05024C10.6111 9.54536 10.5284 9.81409 10.4589 9.99289C10.3669 10.2299 10.2566 10.3986 10.0789 10.5763C9.90118 10.754 9.73243 10.864 9.49533 10.9561C9.31653 11.0259 9.04759 11.1084 8.55248 11.1311C8.01714 11.1554 7.85637 11.1607 6.50046 11.1607C5.1445 11.1607 4.98377 11.1554 4.44849 11.1311C3.95337 11.1082 3.68464 11.0255 3.50548 10.956C3.26854 10.8639 3.09923 10.7539 2.9215 10.5762C2.74376 10.3984 2.63377 10.2296 2.5415 9.99249C2.47198 9.81369 2.38916 9.54495 2.36661 9.04984C2.34229 8.5145 2.33741 8.35373 2.33741 6.99761C2.33741 5.64155 2.34229 5.48159 2.36661 4.94625C2.38926 4.45114 2.47198 4.1824 2.5415 4.0034C2.63357 3.7664 2.74376 3.59715 2.92155 3.41941C3.09928 3.24168 3.26854 3.13164 3.50553 3.03942C3.68454 2.96959 3.95337 2.88707 4.44849 2.86432C4.91695 2.84315 5.09849 2.8368 6.0449 2.83573V2.837ZM9.21116 3.68018C8.87473 3.68018 8.60179 3.95287 8.60179 4.28935C8.60179 4.62577 8.87473 4.89872 9.21116 4.89872C9.54759 4.89872 9.82054 4.62577 9.82054 4.28935C9.82054 3.95292 9.54759 3.67997 9.21116 3.67997V3.68018ZM6.50046 4.39218C5.0603 4.39218 3.89264 5.55984 3.89264 7.00005C3.89264 8.44026 5.0603 9.60736 6.50046 9.60736C7.94066 9.60736 9.10792 8.44026 9.10792 7.00005C9.10792 5.55989 7.94056 4.39218 6.50036 4.39218H6.50046ZM6.50046 5.30731C7.43529 5.30731 8.1932 6.06512 8.1932 7.00005C8.1932 7.93488 7.43529 8.69279 6.50046 8.69279C5.56557 8.69279 4.80777 7.93488 4.80777 7.00005C4.80777 6.06512 5.56557 5.30731 6.50046 5.30731Z" fill="white"/>
</g>
<defs>
<radialGradient id="paint0_radial_900_469" cx="0" cy="0" r="1" gradientUnits="userSpaceOnUse" gradientTransform="translate(3.45312 14.5013) rotate(-90) scale(12.884 11.9831)">
<stop stop-color="#FFDD55"/>
<stop offset="0.1" stop-color="#FFDD55"/>
<stop offset="0.5" stop-color="#FF543E"/>
<stop offset="1" stop-color="#C837AB"/>
</radialGradient>
<radialGradient id="paint1_radial_900_469" cx="0" cy="0" r="1" gradientUnits="userSpaceOnUse" gradientTransform="translate(-2.17755 1.43646) rotate(78.681) scale(5.7592 23.7396)">
<stop stop-color="#3771C8"/>
<stop offset="0.128" stop-color="#3771C8"/>
<stop offset="1" stop-color="#6600FF" stop-opacity="0"/>
</radialGradient>
<clipPath id="clip0_900_469">
<rect width="13" height="13" fill="white" transform="translate(0 0.5)"/>
</clipPath>
</defs>
</svg>
