<svg width="16" height="16" viewBox="0 0 16 16" fill="none" xmlns="http://www.w3.org/2000/svg">
<path d="M4 5.1999C4 5.09382 4.04214 4.99207 4.11716 4.91706C4.19217 4.84205 4.29391 4.7999 4.4 4.7999H10C10.1061 4.7999 10.2078 4.84205 10.2828 4.91706C10.3579 4.99207 10.4 5.09382 10.4 5.1999C10.4 5.30599 10.3579 5.40773 10.2828 5.48274C10.2078 5.55776 10.1061 5.5999 10 5.5999H4.4C4.29391 5.5999 4.19217 5.55776 4.11716 5.48274C4.04214 5.40773 4 5.30599 4 5.1999ZM8.4 7.1999C8.29391 7.1999 8.19217 7.24204 8.11716 7.31706C8.04214 7.39207 8 7.49382 8 7.5999C8 7.70599 8.04214 7.80773 8.11716 7.88275C8.19217 7.95776 8.29391 7.9999 8.4 7.9999H10C10.1061 7.9999 10.2078 7.95776 10.2828 7.88275C10.3579 7.80773 10.4 7.70599 10.4 7.5999C10.4 7.49382 10.3579 7.39207 10.2828 7.31706C10.2078 7.24204 10.1061 7.1999 10 7.1999H8.4ZM8 9.9999C8 9.89382 8.04214 9.79207 8.11716 9.71706C8.19217 9.64204 8.29391 9.5999 8.4 9.5999H10C10.1061 9.5999 10.2078 9.64204 10.2828 9.71706C10.3579 9.79207 10.4 9.89382 10.4 9.9999C10.4 10.106 10.3579 10.2077 10.2828 10.2827C10.2078 10.3578 10.1061 10.3999 10 10.3999H8.4C8.29391 10.3999 8.19217 10.3578 8.11716 10.2827C8.04214 10.2077 8 10.106 8 9.9999ZM4.4 7.1999C4.29391 7.1999 4.19217 7.24204 4.11716 7.31706C4.04214 7.39207 4 7.49382 4 7.5999V9.9999C4 10.106 4.04214 10.2077 4.11716 10.2827C4.19217 10.3578 4.29391 10.3999 4.4 10.3999H6.8C6.90609 10.3999 7.00783 10.3578 7.08284 10.2827C7.15786 10.2077 7.2 10.106 7.2 9.9999V7.5999C7.2 7.49382 7.15786 7.39207 7.08284 7.31706C7.00783 7.24204 6.90609 7.1999 6.8 7.1999H4.4ZM4.8 9.5999V7.9999H6.4V9.5999H4.8ZM1.6 3.9999C1.6 3.57556 1.76857 3.16859 2.06863 2.86853C2.36869 2.56847 2.77565 2.3999 3.2 2.3999H11.2C11.6243 2.3999 12.0313 2.56847 12.3314 2.86853C12.6314 3.16859 12.8 3.57556 12.8 3.9999V4.7999C13.2243 4.7999 13.6313 4.96847 13.9314 5.26853C14.2314 5.56859 14.4 5.97556 14.4 6.3999V10.7999C14.4 11.3303 14.1893 11.839 13.8142 12.2141C13.4391 12.5892 12.9304 12.7999 12.4 12.7999H3.6C3.06957 12.7999 2.56086 12.5892 2.18578 12.2141C1.81071 11.839 1.6 11.3303 1.6 10.7999V3.9999ZM12 3.9999C12 3.78773 11.9157 3.58425 11.7657 3.43422C11.6157 3.28419 11.4122 3.1999 11.2 3.1999H3.2C2.98783 3.1999 2.78434 3.28419 2.63431 3.43422C2.48428 3.58425 2.4 3.78773 2.4 3.9999V10.7999C2.4 11.1182 2.52643 11.4234 2.75147 11.6484C2.97651 11.8735 3.28174 11.9999 3.6 11.9999H12.4C12.7183 11.9999 13.0235 11.8735 13.2485 11.6484C13.4736 11.4234 13.6 11.1182 13.6 10.7999V6.3999C13.6 6.18773 13.5157 5.98425 13.3657 5.83422C13.2157 5.68419 13.0122 5.5999 12.8 5.5999V10.7999C12.8 10.906 12.7579 11.0077 12.6828 11.0827C12.6078 11.1578 12.5061 11.1999 12.4 11.1999C12.2939 11.1999 12.1922 11.1578 12.1172 11.0827C12.0421 11.0077 12 10.906 12 10.7999V3.9999Z" fill="black" fill-opacity="0.3"/>
</svg>
