<svg width="13" height="14" viewBox="0 0 13 14" fill="none" xmlns="http://www.w3.org/2000/svg">
<g clip-path="url(#clip0_900_72)">
<path d="M9.63384 5.18104C10.5823 5.77926 11.7443 6.13125 12.9993 6.13125V4.0006C12.7617 4.00064 12.5249 3.97876 12.2925 3.93533V5.61246C11.0376 5.61246 9.87581 5.26052 8.92712 4.66234V9.01044C8.92712 11.1856 6.92857 12.9488 4.46345 12.9488C3.54364 12.9488 2.68869 12.7034 1.97852 12.2826C2.78909 13.0139 3.91948 13.4675 5.17002 13.4675C7.63534 13.4675 9.63394 11.7044 9.63394 9.52909V5.18104H9.63384ZM10.5058 3.03147C10.021 2.56423 9.7027 1.9604 9.63384 1.29283V1.0188H8.96409C9.13268 1.86725 9.70778 2.59211 10.5058 3.03147ZM3.5377 10.6135C3.26688 10.3002 3.12049 9.91694 3.12114 9.52286C3.12114 8.52805 4.03526 7.72142 5.16306 7.72142C5.3732 7.72133 5.58211 7.7498 5.78244 7.80583V5.62752C5.54834 5.59924 5.3121 5.58718 5.07597 5.59162V7.28709C4.87555 7.23101 4.66653 7.20255 4.45628 7.20272C3.32854 7.20272 2.41447 8.00926 2.41447 9.00421C2.41447 9.70773 2.87135 10.3168 3.5377 10.6135Z" fill="#FF004F"/>
<path d="M8.9278 4.6623C9.87655 5.26047 11.0383 5.61242 12.2932 5.61242V3.93528C11.5927 3.80362 10.9726 3.48069 10.5064 3.03147C9.70836 2.59207 9.13337 1.86721 8.96477 1.0188H7.20556V9.529C7.20155 10.5211 6.28901 11.3244 5.16364 11.3244C4.50054 11.3244 3.91138 11.0456 3.53829 10.6135C2.87204 10.3168 2.41511 9.70769 2.41511 9.00425C2.41511 8.00939 3.32917 7.20276 4.45692 7.20276C4.673 7.20276 4.88125 7.23244 5.07661 7.28713V5.59166C2.65475 5.63582 0.707031 7.38176 0.707031 9.52905C0.707031 10.601 1.19204 11.5727 1.97925 12.2827C2.68943 12.7034 3.54433 12.9489 4.46418 12.9489C6.92936 12.9489 8.92786 11.1856 8.92786 9.01044V4.66234L8.9278 4.6623Z" fill="black"/>
<path d="M12.2929 3.93514V3.48175C11.6612 3.4826 11.042 3.32652 10.5061 3.03137C10.9805 3.4896 11.6052 3.8056 12.2929 3.93523V3.93514ZM8.96441 1.01866C8.94834 0.937589 8.93601 0.855981 8.92745 0.774031V0.5H6.49837V9.01029C6.49452 10.0023 5.58198 10.8056 4.45656 10.8056C4.13752 10.8061 3.82283 10.7402 3.53793 10.6135C3.91102 11.0455 4.50018 11.3243 5.16329 11.3243C6.2886 11.3243 7.20124 10.5211 7.2052 9.52895V1.0187H8.96441V1.01866ZM5.0764 5.59152V5.10877C4.87342 5.08428 4.66879 5.07203 4.46393 5.0721C1.9985 5.0721 0 6.83535 0 9.01029C0 10.3739 0.785434 11.5756 1.979 12.2825C1.19179 11.5725 0.706773 10.6008 0.706773 9.5289C0.706773 7.38166 2.65444 5.63567 5.0764 5.59152Z" fill="#00F2EA"/>
</g>
<defs>
<clipPath id="clip0_900_72">
<rect width="13" height="13" fill="white" transform="translate(0 0.5)"/>
</clipPath>
</defs>
</svg>
