<svg width="13" height="14" viewBox="0 0 13 14" fill="none" xmlns="http://www.w3.org/2000/svg">
<g clip-path="url(#clip0_900_957)">
<path d="M9.95312 0.5H3.04688C1.36413 0.5 0 1.86413 0 3.54688V10.4531C0 12.1359 1.36413 13.5 3.04688 13.5H9.95312C11.6359 13.5 13 12.1359 13 10.4531V3.54688C13 1.86413 11.6359 0.5 9.95312 0.5Z" fill="white"/>
<path d="M9.95312 0.5H3.04688C1.36413 0.5 0 1.86413 0 3.54688V10.4531C0 12.1359 1.36413 13.5 3.04688 13.5H9.95312C11.6359 13.5 13 12.1359 13 10.4531V3.54688C13 1.86413 11.6359 0.5 9.95312 0.5Z" fill="#1D9BF0"/>
<path d="M10.1345 5.14196C10.1401 5.22255 10.1401 5.30314 10.1401 5.38449C10.1401 7.86247 8.25368 10.7203 4.80426 10.7203V10.7188C3.78524 10.7203 2.78733 10.4284 1.92969 9.87813C2.07787 9.89595 2.22676 9.90484 2.37605 9.90519C3.22063 9.90586 4.04091 9.62257 4.70509 9.10087C4.31376 9.09347 3.93454 8.96397 3.62042 8.73048C3.3063 8.49698 3.073 8.17117 2.95313 7.79858C3.23409 7.85276 3.52374 7.84171 3.79976 7.76629C2.9249 7.58952 2.29546 6.82084 2.29546 5.92811V5.90434C2.55627 6.04961 2.84816 6.1301 3.14656 6.13905C2.32258 5.58833 2.06857 4.49211 2.56613 3.63503C3.03694 4.21439 3.62436 4.68823 4.29023 5.02578C4.9561 5.36332 5.68553 5.55701 6.43114 5.59427C6.3568 5.27427 6.36778 4.94035 6.46298 4.62593C6.55819 4.3115 6.73427 4.02758 6.97364 3.80256C7.72896 3.09253 8.91688 3.12894 9.62691 3.88386C10.0469 3.80094 10.4496 3.64698 10.8178 3.4286C10.6778 3.86282 10.3848 4.23139 9.99339 4.46576C10.3651 4.42196 10.7282 4.32245 11.0703 4.17057C10.8186 4.54747 10.5017 4.87638 10.1345 5.14196Z" fill="white"/>
</g>
<defs>
<clipPath id="clip0_900_957">
<rect width="13" height="13" fill="white" transform="translate(0 0.5)"/>
</clipPath>
</defs>
</svg>
